<?xml version="1.0" encoding="UTF-8" standalone="no"?>
<svg
   id="Livello_1"
   version="1.1"
   viewBox="0 0 300 300"
   sodipodi:docname="GAME 2 SPACE INVADERS-05.svgz"
   xmlns:inkscape="http://www.inkscape.org/namespaces/inkscape"
   xmlns:sodipodi="http://sodipodi.sourceforge.net/DTD/sodipodi-0.dtd"
   xmlns="http://www.w3.org/2000/svg"
   xmlns:svg="http://www.w3.org/2000/svg">
  <sodipodi:namedview
     id="namedview44"
     pagecolor="#ffffff"
     bordercolor="#000000"
     borderopacity="0.25"
     inkscape:showpageshadow="2"
     inkscape:pageopacity="0.0"
     inkscape:pagecheckerboard="0"
     inkscape:deskcolor="#d1d1d1" />
  <!-- Generator: Adobe Illustrator 30.0.0, SVG Export Plug-In . SVG Version: 2.1.1 Build 123)  -->
  <defs
     id="defs1">
    <style
       id="style1">
      .st0 {
        fill: #234d2d;
      }

      .st1 {
        fill: #182d1b;
      }

      .st2 {
        fill: #4c244c;
      }

      .st3 {
        fill: #70354c;
      }

      .st4 {
        fill: #a1d0a5;
      }

      .st5 {
        fill: #bb90bc;
      }

      .st6 {
        fill: #c1719d;
      }

      .st7 {
        fill: #995079;
      }

      .st8 {
        fill: #521a32;
      }

      .st9 {
        fill: #eae772;
      }

      .st10 {
        fill: #ceb34c;
      }

      .st11 {
        fill: #fff;
      }

      .st12 {
        fill: #173e41;
      }

      .st13 {
        fill: #f7bfd8;
      }

      .st14 {
        fill: #644629;
      }

      .st15 {
        fill: #cdb8d1;
      }

      .st16 {
        fill: #b9cdd2;
      }

      .st17 {
        fill: #77bb89;
      }

      .st18 {
        fill: #1e4225;
      }

      .st19 {
        fill: #feffff;
      }

      .st20 {
        fill: #5f3f4d;
      }

      .st21 {
        fill: #f192bc;
      }

      .st22 {
        fill: #83bcc1;
      }
    </style>
  </defs>
  <path
     class="st22"
     d="M134.74,234.54c-16.72-.79-32.27-2.55-46.65-5.27,2.97,5.25,9.53,9.19,19.66,11.82,13.02,10.14,28.65,14.9,46.91,14.27,6.75-.31,13.64-1.73,20.67-4.25,7.03-2.53,12.74-5.97,17.13-10.33,8.16-2.28,14.21-5.88,18.15-10.77-23.76,4.62-49.05,6.13-75.87,4.53Z"
     id="path1" />
  <path
     class="st4"
     d="M233.09,116c-2.15-13.05-8.07-25.45-17.74-37.19-2.68-3.25-5.65-6.46-8.92-9.62-9.31-9.02-20.21-15.16-32.7-18.43-.27-.06-.54-.13-.82-.2-.72-.18-1.44-.35-2.17-.51-6.78-1.5-14.02-2.18-21.7-2.04-9.4.17-18.19,1.51-26.39,4.04-12.08,3.72-22.86,10.01-32.34,18.85-5.42,5.06-10.02,10.17-13.82,15.32-1.69,2.29-3.21,4.58-4.58,6.88-4.58,7.74-7.36,15.59-8.33,23.54-1.91,15.64,5.29,29.73,21.6,42.29,4.79,3.69,9.97,6.87,15.54,9.54,10.17,4.88,21.65,8.09,34.44,9.61l-3.54,6.8-1.76,3.4-1.76,3.4c6.92.45,14.09.69,21.52.73,9.23.05,18.11-.22,26.64-.8l-3.17-4.76-1.3-1.94-4.46-6.71c11.56-1.44,22.09-4.61,31.58-9.52,4.45-2.29,8.66-4.97,12.65-8.02,17.1-13.09,24.28-27.97,21.53-44.64Z"
     id="path2" />
  <path
     class="st6"
     d="M84.31,170.14c-5.75.69-11.47,1.45-17.17,2.29-4.05.57-7.81,1.31-11.29,2.22-.58.16-1.02.3-1.32.44-.16.07-.28.15-.37.22-.17.14-.22.29-.17.45.31.56,1.86,1.36,4.65,2.42,3.18,1.31,11.36,3.6,24.53,6.87,13.52,3.36,28.5,5.56,44.94,6.61l1.76-3.4,1.76-3.4,3.54-6.8c-12.79-1.52-24.27-4.72-34.44-9.61-5.51.48-10.98,1.04-16.41,1.68Z"
     id="path3" />
  <path
     class="st6"
     d="M242.93,175.21c-.54-.3-1.33-.57-2.39-.8-.66-.18-1.41-.37-2.24-.56-1.8-.43-3.9-.86-6.28-1.3-1.99-.37-4.19-.74-6.59-1.11-4.02-.5-8.03-.96-12.02-1.39-4.86-.52-9.69-.98-14.51-1.39-9.49,4.91-20.01,8.08-31.58,9.52l4.46,6.71,1.3,1.94,3.17,4.76c14.66-.99,28.27-2.9,40.85-5.73,3.62-.81,6.88-1.59,9.79-2.32,9.02-2.52,14.43-4.58,16.21-6.18.22-.41.44-.82.65-1.24-.06-.33-.34-.63-.83-.9Z"
     id="path4" />
  <path
     class="st5"
     d="M280.41,195.77c.03.45-.05.87-.26,1.25-1.1,2.04-4.47,4.35-10.11,6.95-9.44,4.35-24.08,8.28-43.92,11.79-17.29,2.84-33.75,4.91-49.38,6.19-37.91,3.12-70.93,1.67-99.07-4.35-1.95-.39-3.84-.78-5.69-1.18-13.17-2.76-23.88-5.42-32.11-7.97-13.04-4.72-19.86-8.66-20.47-11.82-.14,3.15,1.4,6.05,4.61,8.69,5.25,3.78,11.29,7.21,18.12,10.27,13.69,5.9,29.01,10.46,45.95,13.67,14.38,2.73,29.93,4.48,46.65,5.27,26.81,1.6,52.1.09,75.87-4.53,9.18-1.78,18.14-4.02,26.87-6.74,14.14-4.33,25.33-9.34,33.57-15.05,1.77-1.24,3.4-2.61,4.89-4.1,3.83-3.3,5.32-6.09,4.48-8.37Z"
     id="path5" />
  <path
     class="st21"
     d="M53.98,175.77c-.05-.16,0-.31.17-.45-10.4,2.73-18.63,6.13-24.69,10.2-6.01,4.04-9.35,7.41-10.02,10.11-.09.33-.1.67-.03,1.02.6,3.16,7.42,7.1,20.47,11.82,8.23,2.55,18.94,5.21,32.11,7.97,1.85.39,3.74.78,5.69,1.18,28.13,6.02,61.16,7.47,99.07,4.35,15.63-1.29,32.09-3.35,49.38-6.19,19.84-3.51,34.48-7.44,43.92-11.79,5.64-2.6,9.01-4.91,10.11-6.95.21-.38.29-.8.26-1.25-.13-2.02-2.66-4.71-7.57-8.07-5.9-4.03-15.5-8.09-28.8-12.15-.09.19-.18.38-.28.57.07.38-.15.79-.65,1.24-1.79,1.6-7.19,3.66-16.21,6.18-2.91.74-6.17,1.51-9.79,2.32-12.58,2.83-26.19,4.74-40.85,5.73-8.53.58-17.41.85-26.64.8-7.43-.04-14.6-.28-21.52-.73-16.44-1.05-31.41-3.26-44.94-6.61-13.18-3.27-21.35-5.55-24.53-6.87-2.79-1.05-4.34-1.86-4.65-2.42Z"
     id="path6" />
  <path
     class="st13"
     d="M222.39,62.85c-20.54-17.89-45.34-26.83-74.39-26.83-29.05,0-53.41,9.92-73.08,29.77-19.67,19.84-29.47,43.24-29.41,70.2.03,14.75,3.04,27.79,9.01,39.1.3-.13,1.66,2.23,2.25,2.35,4.14.81,4.85,2.55,8.9,1.98-1.18-2.5-1.48-3.02-2.39-5.88,6.15-.61,15.82-2.78,21.03-3.4,5.43-.64,10.9-1.2,16.41-1.68-5.57-2.68-10.75-5.86-15.54-9.54-16.3-12.55-23.5-26.65-21.6-42.29.97-7.95,3.75-15.79,8.33-23.54,1.37-2.3,2.89-4.6,4.58-6.88,3.79-5.15,8.4-10.26,13.82-15.32,9.48-8.84,20.26-15.13,32.34-18.85,8.2-2.53,16.99-3.87,26.39-4.04,7.68-.14,14.91.54,21.7,2.04.73.16,1.46.33,2.17.51.28.07.55.13.82.2,12.48,3.27,23.38,9.42,32.7,18.43,3.26,3.16,6.24,6.36,8.92,9.62,9.68,11.75,15.59,24.14,17.74,37.19,2.75,16.66-4.43,31.54-21.53,44.64-3.99,3.05-8.2,5.73-12.65,8.02,4.81.41,9.65.87,14.51,1.39,3.99.43,8,.89,12.02,1.39,1.64.26,8.11,1.07,11.42,1.71-1.09,2.91,2.2.91.9,3.03,2.38.44-1.62,2.14.18,2.56.83.19,3.16-1.62,3.83-1.44,1.06.24.63-2.39,1.17-2.1.38.11.75.22,1.11.34,5.8-11.59,8.76-25.3,8.86-41.13.2-29.82-9.97-53.67-30.51-71.56Z"
     id="path7" />
  <path
     class="st9"
     d="M165.93,202.72c-3.72-1.97-8.21-2.96-13.48-2.96s-9.76.99-13.49,2.96c-3.72,1.97-5.58,4.34-5.58,7.12v.26c.12,2.66,1.98,4.95,5.58,6.86,3.73,1.97,8.22,2.95,13.49,2.95,5.27,0,9.76-.98,13.48-2.95,3.73-1.97,5.59-4.34,5.59-7.12,0-.1,0-.19,0-.29-.12-2.66-1.98-4.93-5.58-6.83Z"
     id="path8" />
  <path
     class="st9"
     d="M209.06,199.25c-2.51-.81-4.9-.93-7.16-.35-2.26.57-3.74,1.66-4.42,3.27-.21.48-.33.97-.36,1.46-.08,1.16.33,2.35,1.24,3.55,1.27,1.73,3.17,3,5.67,3.81,2.51.81,4.88.93,7.14.36,2.27-.58,3.76-1.67,4.46-3.27.11-.26.19-.51.25-.77.31-1.38-.07-2.79-1.14-4.25-1.28-1.72-3.17-2.99-5.67-3.8Z"
     id="path9" />
  <path
     class="st9"
     d="M101.89,202.18c-.5-.99-1.41-1.77-2.73-2.34-1.89-.81-4.06-.95-6.52-.43-2.48.53-4.53,1.58-6.14,3.14-1.61,1.55-2.31,3.17-2.09,4.84.05.45.16.86.33,1.24.47,1.08,1.4,1.91,2.79,2.52,1.89.81,4.07.95,6.55.42,2.47-.53,4.51-1.57,6.11-3.13,1.61-1.55,2.32-3.17,2.13-4.86-.06-.51-.2-.98-.42-1.41Z"
     id="path10" />
  <path
     class="st9"
     d="M61.44,194.61c-1.21-.69-2.68-.97-4.43-.85-1.76.13-3.29.63-4.59,1.51-1.29.86-1.97,1.85-2.02,2.95-.07,1.1.5,2,1.7,2.69,1.2.69,2.68.97,4.44.83,1.77-.13,3.29-.63,4.58-1.5,1.29-.87,1.97-1.85,2.03-2.94.06-1.1-.51-2-1.71-2.69Z"
     id="path11" />
  <path
     class="st9"
     d="M248.72,196.93c-.06-1.08-.71-2.05-1.97-2.89-1.27-.85-2.77-1.34-4.49-1.47-1.71-.12-3.15.15-4.32.82-1.18.68-1.74,1.55-1.68,2.62.07,1.08.73,2.04,1.99,2.89,1.26.85,2.75,1.34,4.47,1.46,1.72.13,3.17-.14,4.35-.82,1.17-.67,1.72-1.54,1.65-2.61Z"
     id="path12" />
  <path
     class="st7"
     d="M129.85,188.27l1.76-3.4,3.54-6.8c-12.79-1.52-24.27-4.72-34.44-9.61-5.51.48-10.98,1.04-16.41,1.68,11.05,9.64,26.24,15.69,45.55,18.13h0ZM213.41,170.05c-4.86-.52-9.69-.98-14.51-1.39-9.49,4.91-20.01,8.08-31.58,9.52l4.46,6.71,1.3,1.94c15.07-1.44,28.51-7.04,40.33-16.78Z"
     id="path13" />
  <path
     class="st17"
     d="M198.9,168.66c4.45-2.29,8.66-4.97,12.65-8.02,17.1-13.09,24.28-27.97,21.53-44.64-2.15-13.05-8.07-25.45-17.74-37.19,12.41,23.61,15.04,42.32,7.88,56.13-5.2,11.58-15.74,20.49-31.61,26.73-25,8.24-48.65,9.27-70.92,3.09-11.89-3.28-21.98-8.33-30.29-15.17-6.26-5.47-11.04-11.45-14.35-17.94-1.47-3.36-2.65-6.78-3.52-10.25-3.24-13.05-1.93-24.78,3.96-35.18-1.69,2.29-3.21,4.58-4.58,6.88-4.58,7.74-7.36,15.59-8.33,23.54-1.91,15.64,5.29,29.73,21.6,42.29,4.79,3.69,9.97,6.87,15.54,9.54,10.17,4.88,21.65,8.09,34.44,9.61l-3.54,6.8c12.71,3.42,26.1,3.43,40.17.02l-4.46-6.71c11.56-1.44,22.09-4.61,31.58-9.52Z"
     id="path14" />
  <path
     class="st16"
     d="M141.78,249.86c6.79,1.23,13.26,1.13,19.43-.3,6.17-1.43,9.71-3.2,10.62-5.32-13.99,1.39-27.54,1.53-40.66.42,1.08,2.54,4.61,4.27,10.62,5.2Z"
     id="path15" />
  <path
     class="st15"
     d="M77.67,217.6c-1.95-.39-3.84-.78-5.69-1.18l-.64,5.09c11.48,2.65,24.23,4.58,38.25,5.79,27.21,2.13,49.9,1.99,68.04-.42-.05-1.85-.35-3.5-.89-4.94-37.91,3.12-70.93,1.67-99.07-4.35Z"
     id="path16" />
  <path
     class="st20"
     d="M242.92,177.61c-.39,0-.79-.1-1.16-.3-.15-.08-.62-.3-1.74-.55-.04,0-.08-.02-.12-.03-.63-.17-1.35-.36-2.15-.54-1.76-.42-3.84-.84-6.17-1.27,0,0,0,0,0,0-1.95-.36-4.13-.73-6.48-1.09-3.99-.5-8.01-.96-11.95-1.38-4.82-.51-9.69-.98-14.45-1.38-1.32-.11-2.3-1.27-2.19-2.59.11-1.32,1.27-2.3,2.59-2.19,4.8.4,9.7.87,14.55,1.39,3.98.42,8.04.89,12.07,1.39.02,0,.05,0,.07.01,2.4.38,4.63.75,6.64,1.12,0,0,0,0,0,0,2.41.44,4.56.89,6.39,1.32.83.19,1.59.38,2.27.57,1.26.28,2.23.62,2.97,1.03,1.16.64,1.57,2.1.93,3.26-.44.79-1.26,1.23-2.1,1.23ZM54.52,177.5c-.91,0-1.78-.52-2.18-1.4-.55-1.2-.03-2.63,1.18-3.18.42-.19.98-.38,1.69-.58,0,0,.01,0,.02,0,3.55-.93,7.43-1.7,11.55-2.27,5.69-.84,11.49-1.62,17.24-2.3,5.43-.65,10.98-1.22,16.49-1.69,1.32-.12,2.48.86,2.6,2.18.11,1.32-.86,2.48-2.18,2.6-5.46.47-10.95,1.04-16.33,1.68-5.7.68-11.45,1.44-17.1,2.28,0,0-.02,0-.02,0-3.93.55-7.64,1.28-11,2.16-.62.17-.87.28-.94.3-.32.15-.67.22-1,.22Z"
     id="path17" />
  <path
     class="st11"
     d="M87.4,65.85c5.96-4.23,13.78-7.88,23.34-11.13,9.94-4.29,21.38-6.99,34.31-8.09,5.48-.39,11.22-.25,17.22.41,14.65,1.25,26.13,4.03,34.43,8.36.85.43,1.69.87,2.52,1.33,12.31,6.8,22.57,16.87,30.77,30.2,8.38,15.09,13.38,29.8,12.99,46.19-.36,15.39-3.06,36.73-9.34,46.94,2.38.44,3.2-2.88,5-2.46.83.19,2.44-.48,3.1-.3,1.06.24.63-2.39,1.17-2.1.38.11.75.22,1.11.34,5.8-11.59,8.76-25.3,8.86-41.13.2-29.82-9.97-53.67-30.51-71.56-20.54-17.89-45.34-26.83-74.39-26.83-29.05,0-53.41,9.92-73.08,29.77-19.67,19.84-29.47,43.24-29.41,70.2.03,14.75,3.04,27.79,9.01,39.1.3-.13.74-.28,1.32-.44,3.48-.91,5.78,5.34,9.83,4.77-8.89-13.36-10.01-35.74-10.21-51.68-.13-16.99,4.89-31.32,15.88-45.25,4.81-6.11,10.4-12.62,16.06-16.64Z"
     id="path18" />
  <path
     class="st1"
     d="M122.28,116.32c-3.41-3.95-7.34-5.81-11.79-5.59-4.45.22-8.26,2.34-11.41,6.35-3.15,4.02-4.81,8.63-4.98,13.82-.16,5.2,1.38,9.68,4.62,13.43,3.24,3.76,7.11,5.6,11.6,5.54,4.5-.06,8.41-1.97,11.74-5.73,3.33-3.75,5.06-8.34,5.17-13.77.11-5.43-1.54-10.12-4.94-14.07h0ZM109.61,114.37c1.72.26,2.95.95,3.68,2.07.73,1.12.79,2.5.21,4.12-.58,1.63-1.74,2.91-3.47,3.84-1.73.94-3.53,1.32-5.39,1.16-1.85-.17-3.12-.85-3.81-2.03-.68-1.19-.69-2.63,0-4.32.67-1.7,1.88-3,3.61-3.89,1.73-.89,3.46-1.21,5.19-.95h0ZM119.86,136.31c.59,0,1.09.21,1.51.63.42.42.62.92.62,1.51s-.21,1.09-.62,1.51c-.42.42-.92.62-1.51.62s-1.09-.21-1.51-.62c-.42-.42-.62-.92-.62-1.51,0-.59.21-1.09.62-1.51s.92-.63,1.51-.63h0ZM198.3,146.26c3.29-3.92,4.99-8.65,5.12-14.19.13-5.54-1.51-10.26-4.93-14.17-3.41-3.91-7.38-5.81-11.9-5.69-4.52.12-8.43,2.12-11.73,6.02-3.29,3.89-4.98,8.56-5.08,13.99-.09,5.43,1.5,10.17,4.77,14.21,3.28,4.04,7.23,6.01,11.87,5.9,4.64-.11,8.6-2.13,11.88-6.06h0ZM194.05,141.62c-.59,0-1.09-.21-1.51-.63-.42-.42-.63-.92-.63-1.51s.21-1.09.63-1.51c.42-.42.92-.62,1.51-.62s1.09.21,1.51.62c.42.42.63.92.63,1.51s-.21,1.09-.63,1.51c-.42.42-.92.63-1.51.63h0ZM179.27,117.22c1.73-.89,3.48-1.25,5.25-1.08,1.77.17,3,.85,3.69,2.03.69,1.19.69,2.66,0,4.41-.7,1.75-1.92,3.11-3.67,4.06-1.75.95-3.49,1.29-5.23,1-1.74-.29-2.95-1.02-3.64-2.21-.68-1.19-.69-2.63-.02-4.33.68-1.69,1.89-2.99,3.62-3.88Z"
     id="path19" />
  <path
     class="st19"
     d="M121.37,136.93c-.42-.42-.92-.63-1.51-.63s-1.09.21-1.51.63-.62.92-.62,1.51c0,.59.21,1.09.62,1.51.42.42.92.62,1.51.62s1.09-.21,1.51-.62c.42-.42.62-.92.62-1.51s-.21-1.09-.62-1.51h0ZM113.28,116.44c-.73-1.12-1.95-1.81-3.68-2.07-1.72-.26-3.45.06-5.19.95-1.74.89-2.94,2.19-3.61,3.89-.68,1.69-.67,3.13,0,4.32.68,1.19,1.95,1.87,3.81,2.03,1.86.17,3.66-.22,5.39-1.16,1.73-.94,2.89-2.22,3.47-3.84.59-1.63.52-3-.21-4.12h0ZM184.53,116.14c-1.77-.17-3.52.19-5.25,1.08-1.73.89-2.94,2.19-3.62,3.88-.67,1.7-.67,3.14.02,4.33.68,1.19,1.9,1.92,3.64,2.21,1.74.29,3.49-.05,5.23-1,1.75-.95,2.97-2.31,3.67-4.06.7-1.75.7-3.22,0-4.41-.69-1.19-1.92-1.86-3.69-2.03h0ZM192.54,141c.42.42.92.63,1.51.63s1.09-.21,1.51-.63c.42-.42.63-.92.63-1.51s-.21-1.09-.63-1.51c-.42-.42-.92-.62-1.51-.62s-1.09.21-1.51.62c-.42.42-.63.92-.63,1.51s.21,1.09.63,1.51Z"
     id="path20" />
  <path
     class="st18"
     d="M149.53,152.18c-1.8,0-3.71-.37-5.71-1.11-3.41-1.28-5.85-3.51-7.26-6.65-.54-1.21,0-2.63,1.2-3.17,1.21-.54,2.63,0,3.17,1.2.88,1.95,2.37,3.3,4.56,4.12,1.72.63,3.3.9,4.69.78.01,0,.03,0,.04,0,3.31-.22,5.52-2.04,6.95-5.71.48-1.23,1.87-1.85,3.11-1.36,1.23.48,1.85,1.87,1.36,3.11-2.64,6.78-7.48,8.5-11.07,8.75-.34.03-.69.04-1.03.04Z"
     id="path21" />
  <path
     class="st3"
     d="M244.03,177.95c-.36,0-.73-.08-1.07-.25-1.18-.59-1.67-2.03-1.07-3.22,5.61-11.21,8.5-24.69,8.6-40.08.19-28.95-9.8-52.41-29.69-69.73-20-17.41-44.49-26.24-72.81-26.24-28.25,0-52.26,9.78-71.37,29.06-19.12,19.29-28.78,42.33-28.72,68.51.03,14.29,2.97,27.07,8.74,37.99.62,1.17.17,2.62-1,3.24-1.17.62-2.62.17-3.24-1-6.13-11.62-9.26-25.15-9.29-40.22-.03-13.74,2.49-26.76,7.5-38.7,5-11.93,12.61-23.1,22.62-33.2,10.02-10.11,21.4-17.8,33.82-22.86,12.41-5.06,26.19-7.62,40.96-7.62h0c14.73,0,28.6,2.3,41.2,6.85,12.62,4.55,24.32,11.47,34.76,20.57,10.5,9.14,18.46,19.97,23.67,32.17,5.19,12.17,7.77,26.04,7.67,41.21-.11,16.12-3.17,30.32-9.11,42.19-.42.84-1.27,1.33-2.15,1.33Z"
     id="path22" />
  <path
     class="st12"
     d="M151.52,257.82c-17.23,0-32.3-4.88-44.86-14.53-10.61-2.82-17.38-7.03-20.67-12.83-.65-1.15-.25-2.62.91-3.27,1.15-.65,2.62-.25,3.27.91,2.63,4.64,8.74,8.23,18.17,10.68,0,0,0,0,0,0,2.29.59,4.8,1.12,7.47,1.58,5.08.84,10.32,1.49,15.55,1.93,12.91,1.09,26.45.95,40.22-.42,0,0,0,0,0,0,3.61-.36,7.3-.81,10.96-1.33,3.05-.5,6.16-1.19,9.24-2.06,0,0,0,0,0,0,7.63-2.14,13.32-5.49,16.93-9.96.83-1.03,2.34-1.19,3.37-.36,1.03.83,1.19,2.34.36,3.37-4.15,5.15-10.46,8.98-18.78,11.4-4.56,4.38-10.46,7.89-17.56,10.44-7.23,2.6-14.42,4.07-21.37,4.39,0,0-.02,0-.03,0-1.08.04-2.15.06-3.21.06ZM119.54,245.78c10.28,5.22,22,7.64,35.01,7.19,6.47-.3,13.19-1.68,19.96-4.11,2.75-.99,5.3-2.13,7.64-3.42-3.38.47-6.76.87-10.08,1.2,0,0,0,0,0,0-14.07,1.39-27.89,1.53-41.1.42-3.82-.32-7.65-.75-11.42-1.28Z"
     id="path23" />
  <path
     class="st2"
     d="M154.96,237.55c-6.7,0-13.49-.2-20.36-.61-16.75-.79-32.55-2.58-46.96-5.31,0,0,0,0,0,0-17.03-3.23-32.66-7.88-46.45-13.82-.01,0-.02-.01-.03-.02-6.94-3.12-13.18-6.66-18.53-10.51-.04-.03-.08-.06-.12-.1-3.81-3.14-5.65-6.72-5.48-10.65.06-1.32,1.18-2.34,2.5-2.29,1.32.06,2.35,1.18,2.29,2.5-.1,2.36,1.1,4.54,3.68,6.69,5.08,3.65,11,7,17.62,9.98,13.46,5.8,28.75,10.34,45.43,13.5,0,0,0,0,0,0,14.2,2.69,29.79,4.45,46.32,5.23,0,0,.02,0,.03,0,26.49,1.58,51.81.07,75.27-4.49,0,0,0,0,0,0,9.05-1.76,18.01-4,26.61-6.68,13.84-4.24,24.91-9.19,32.91-14.72,1.64-1.16,3.18-2.45,4.57-3.83.04-.04.08-.08.13-.12,2.81-2.42,4.23-4.56,3.8-5.72-.46-1.24.18-2.62,1.42-3.08,1.24-.46,2.62.18,3.08,1.42,1.81,4.92-3.31,9.41-5.1,10.96-1.57,1.55-3.29,3-5.14,4.3,0,0-.01,0-.02.01-8.41,5.82-19.93,10.99-34.24,15.37-8.76,2.72-17.89,5.01-27.11,6.8,0,0,0,0,0,0-17.75,3.45-36.55,5.18-56.09,5.18ZM271.04,208.23h0,0Z"
     id="path24" />
  <path
     class="st10"
     d="M133.38,210.1c.12,2.66,1.98,4.95,5.58,6.86,3.73,1.97,8.22,2.95,13.49,2.95,5.27,0,9.76-.98,13.48-2.95,3.73-1.97,5.59-4.34,5.59-7.12,0-.1,0-.19,0-.29-12,5.15-24.71,5.33-38.13.55Z"
     id="path25" />
  <path
     class="st14"
     d="M152.45,222.3h0c-5.64,0-10.55-1.08-14.61-3.22-4.39-2.33-6.7-5.32-6.85-8.88,0,0,0-.01,0-.02,0-.12,0-.23,0-.35,0-3.73,2.31-6.83,6.86-9.24,4.06-2.15,8.97-3.24,14.61-3.24s10.55,1.09,14.6,3.24c4.38,2.31,6.69,5.28,6.86,8.83,0,.01,0,.02,0,.04,0,.12,0,.24,0,.37,0,3.72-2.31,6.83-6.86,9.24-4.05,2.14-8.96,3.23-14.6,3.23ZM135.78,210c.08,1.74,1.53,3.36,4.3,4.83,3.36,1.77,7.52,2.67,12.37,2.67h0c4.85,0,9-.9,12.36-2.67,4.31-2.28,4.31-4.32,4.31-5,0-.06,0-.13,0-.19-.09-1.73-1.54-3.35-4.31-4.8-3.36-1.78-7.51-2.68-12.36-2.68s-9.01.9-12.37,2.68c-4.3,2.27-4.3,4.32-4.3,5,0,.06,0,.11,0,.17Z"
     id="path26" />
  <path
     class="st10"
     d="M215.61,208.07c.11-.26.19-.51.25-.77-6.35-.13-12.6-1.36-18.76-3.68-.08,1.16.33,2.35,1.24,3.55,1.27,1.73,3.17,3,5.67,3.81,2.51.81,4.88.93,7.14.36,2.27-.58,3.76-1.67,4.46-3.27Z"
     id="path27" />
  <path
     class="st14"
     d="M208.31,214.09c-1.64,0-3.32-.28-5.03-.83-2.98-.96-5.29-2.53-6.87-4.67-1.24-1.66-1.82-3.39-1.7-5.14.05-.76.24-1.52.56-2.25.98-2.32,3.02-3.89,6.04-4.65,2.69-.69,5.55-.55,8.49.4,2.97.96,5.28,2.52,6.86,4.65,1.51,2.05,2.03,4.14,1.55,6.22,0,0,0,0,0,0-.09.39-.22.79-.38,1.17,0,0,0,.02-.01.03-1.01,2.31-3.05,3.87-6.06,4.64-1.12.28-2.27.42-3.44.42ZM204.78,200.93c-.78,0-1.55.1-2.3.29-2.25.56-2.67,1.56-2.81,1.89-.11.25-.16.47-.18.69-.04.56.22,1.22.77,1.95.99,1.34,2.45,2.31,4.49,2.96,2.09.67,3.99.78,5.81.32,2.23-.57,2.69-1.55,2.84-1.89.05-.12.09-.24.12-.36h0c.06-.25.23-.99-.73-2.3-.98-1.31-2.44-2.28-4.48-2.93-1.24-.4-2.41-.6-3.54-.6ZM215.86,207.3h0,0Z"
     id="path28" />
  <path
     class="st10"
     d="M94.07,211.58c2.47-.53,4.51-1.57,6.11-3.13,1.61-1.55,2.32-3.17,2.13-4.86-.06-.51-.2-.98-.42-1.41-4.75,4.11-10.46,6.26-17.16,6.46.47,1.08,1.4,1.91,2.79,2.52,1.89.81,4.07.95,6.55.42Z"
     id="path29" />
  <path
     class="st14"
     d="M91.27,214.29c-1.68,0-3.25-.31-4.7-.93-1.97-.86-3.33-2.12-4.04-3.76h0c-.26-.6-.43-1.24-.51-1.92-.21-1.69.1-4.25,2.81-6.85,1.93-1.87,4.39-3.14,7.3-3.76,2.94-.62,5.62-.43,7.96.57,1.85.8,3.17,1.97,3.93,3.47.34.68.56,1.41.66,2.19,0,0,0,.02,0,.03.28,2.46-.68,4.77-2.84,6.86-1.92,1.86-4.37,3.12-7.27,3.74-1.14.24-2.24.37-3.3.37ZM95.4,201.5c-.71,0-1.46.09-2.27.26-2.05.44-3.67,1.26-4.96,2.52-1.55,1.5-1.43,2.49-1.38,2.81,0,.02,0,.03,0,.05.02.21.07.38.14.55,0,0,0,0,0,0,.22.49.74.92,1.55,1.27,1.43.61,3.09.7,5.09.27,2.04-.44,3.65-1.25,4.94-2.5,1.54-1.49,1.45-2.5,1.41-2.85-.03-.23-.09-.43-.18-.61-.24-.47-.76-.88-1.55-1.22-.84-.36-1.77-.54-2.79-.54Z"
     id="path30" />
  <path
     class="st14"
     d="M55.68,204.17c-1.81,0-3.42-.4-4.79-1.18-2.68-1.54-2.97-3.73-2.9-4.9.07-1.3.66-3.19,3.09-4.81,1.64-1.1,3.57-1.75,5.74-1.91,2.23-.16,4.18.23,5.8,1.16,2.69,1.55,2.98,3.74,2.91,4.9,0,0,0,0,0,.01-.08,1.28-.68,3.15-3.08,4.78-1.63,1.1-3.57,1.75-5.75,1.91-.35.03-.69.04-1.02.04ZM57.78,196.13c-.2,0-.4,0-.61.02-1.34.1-2.46.46-3.42,1.11-.29.19-.95.68-.97,1.08,0,0,0,.02,0,.03,0,.03,0,.05,0,.06.02.04.14.2.5.4.77.44,1.8.62,3.06.52,1.36-.1,2.48-.46,3.42-1.1.59-.4.96-.81.98-1.09,0-.04,0-.05,0-.05,0,0-.08-.16-.51-.41-.65-.37-1.47-.56-2.46-.56ZM63.14,197.3h0,0Z"
     id="path31" />
  <path
     class="st14"
     d="M243.53,202.8c-.32,0-.65-.01-.99-.04-2.12-.15-4.02-.78-5.63-1.87-2.37-1.6-2.96-3.46-3.04-4.73,0,0,0-.02,0-.03-.06-1.15.23-3.3,2.88-4.82,1.59-.91,3.5-1.29,5.69-1.14,2.13.16,4.03.79,5.65,1.87,2.38,1.6,2.96,3.46,3.03,4.75.07,1.16-.21,3.33-2.86,4.83-1.34.77-2.93,1.17-4.73,1.17ZM238.66,195.87c.03.28.37.66.94,1.05.91.62,1.99.96,3.3,1.06,1.23.09,2.23-.08,2.98-.51.32-.18.43-.32.46-.35,0,0,0-.02,0-.03,0,0,0-.02,0-.03-.02-.38-.64-.85-.91-1.03-.93-.62-2.02-.97-3.33-1.07-1.21-.09-2.2.08-2.94.51-.36.21-.46.36-.48.38,0,0,0,0,0,.02Z"
     id="path32" />
  <path
     class="st11"
     d="M145.33,60.19c-.39.06-.83.13-1.31.22-22.59,3.65-39.55,11.92-50.87,24.8-3.89,4.42-6.15,8.01-6.77,10.79-.27,1.13-.24,2.06.07,2.78.44,1.27,1.41,1.64,2.89,1.13.56-.19,1.15-.55,1.76-1.06.63-.61,1.28-1.47,1.94-2.57,2.28-3.19,4.66-5.91,7.14-8.14,7.31-6.98,16-12.98,26.05-18.01,6.22-3.1,12.71-5.78,19.47-8.02,2.12-.65,2.92-1.3,2.39-1.95-.34-.28-1.26-.27-2.76.04Z"
     id="path33" />
  <path
     class="st11"
     d="M156.48,60.67c.83.34,2.1.49,3.79.45,1.7-.04,3.03-.21,3.99-.51.96-.3,1.39-.66,1.27-1.09-.11-.43-.65-.8-1.61-1.1-.96-.3-2.13-.45-3.5-.45-1.37,0-2.55.15-3.54.45-.99.3-1.52.67-1.57,1.1-.05.44.34.82,1.18,1.16Z"
     id="path34" />
  <path
     class="st11"
     d="M52.18,182.05c-.53.03-1.16.09-1.87.18-5.71.95-10.73,2.65-15.07,5.07-2.02,1.27-3.87,2.75-5.53,4.46-.83.92-.84,1.77,0,2.56.93.82,2.06.62,3.41-.61,5-4.51,11.43-7.94,19.29-10.28.89-.27,1.34-.58,1.37-.92.16-.41-.37-.56-1.6-.46Z"
     id="path35" />
  <path
     class="st11"
     d="M242.99,181.4c.03.33.65.58,1.86.75,2.9.59,5.63,1.45,8.18,2.58.02.01.04.02.07.03,6.35,2.5,11.36,5.97,15.02,10.42.66.8,1.56,1.16,2.69,1.05,1.09-.3,1.59-.78,1.51-1.44-.12-.68-.91-1.72-2.36-3.13-5.4-5.04-11.63-8.38-18.67-10.03-2.57-.57-4.75-.84-6.52-.8-1.09-.03-1.68.16-1.77.56Z"
     id="path36" />
  <path
     class="st11"
     d="M149.59,206.74c-.09-.61-.34-1.13-.76-1.55-.52-.53-1.2-.85-2.04-.96-.67-.09-1.43-.03-2.29.17-1.32.32-2.54.89-3.65,1.7-.47.34-.81.67-1.02.99-.22.34-.36.71-.41,1.13-.04.41,0,.8.14,1.18.14.38.37.71.67.99.31.29.66.48,1.04.59.21.06.45.09.72.11.18,0,.43,0,.74,0,.37-.01.65-.04.83-.07.17-.04.44-.12.8-.25.34-.12.61-.2.8-.23.09-.01.25-.03.47-.05.19-.01.35-.03.46-.05.22-.04.55-.16.97-.36.54-.26.95-.49,1.23-.67.43-.29.75-.62.97-.97.3-.49.4-1.05.32-1.67Z"
     id="path37" />
  <path
     class="st11"
     d="M93.76,201.63c-.45-.07-.95-.04-1.5.07-.95.21-1.62.58-2.02,1.11-.24.32-.39.68-.43,1.1-.04.41.02.8.2,1.16.17.36.44.65.78.88.35.22.72.34,1.13.35.28,0,.59-.05.92-.16.23-.07.52-.2.88-.36.36-.17.64-.33.84-.47.29-.2.52-.42.68-.65.25-.36.36-.77.33-1.24-.04-.47-.21-.86-.51-1.18-.32-.33-.75-.53-1.29-.61Z"
     id="path38" />
  <path
     class="st11"
     d="M57.39,196.25c-.22-.16-.47-.23-.74-.23-.29,0-.54.11-.77.32-.23.2-.37.44-.41.73-.04.28.02.55.19.81.16.27.38.44.65.52.27.09.54.07.83-.05.29-.12.49-.3.62-.56.12-.26.15-.53.08-.84-.07-.3-.23-.53-.46-.7Z"
     id="path39" />
  <path
     class="st11"
     d="M208.02,204.23c.15-.32.16-.68.02-1.06-.12-.37-.34-.67-.65-.9-.49-.37-1.2-.56-2.12-.59-.71,0-1.41.07-2.1.22-.57.13-.99.32-1.26.56-.19.17-.32.36-.4.58-.09.24-.09.46-.02.68.11.34.43.63.95.87.85.39,1.9.59,3.17.62.58.01,1.04-.03,1.36-.14.51-.16.86-.44,1.04-.85Z"
     id="path40" />
  <path
     class="st11"
     d="M242.42,196.02c.01-.26-.1-.49-.35-.67-.17-.13-.41-.23-.72-.3-.26-.06-.49-.07-.68-.04-.12.03-.24.08-.35.16-.14.11-.24.25-.28.44-.04.18-.03.35.05.51.06.13.18.29.37.47.12.11.23.18.31.21.03.01.12.02.26.04l.6.03c.11,0,.17,0,.21-.02.06-.01.12-.06.2-.13.25-.25.38-.48.38-.7Z"
     id="path41" />
  <path
     class="st8"
     d="M139.77,225.94c-23.01,0-43.96-2-62.59-5.98-1.93-.39-3.85-.78-5.69-1.17-13.18-2.77-24.06-5.47-32.33-8.03-.04-.01-.07-.02-.11-.04-6.62-2.4-11.76-4.64-15.28-6.67-4.14-2.39-6.28-4.6-6.73-6.94-.13-.69-.11-1.39.06-2.06.84-3.38,4.34-7.04,11.01-11.52,6.29-4.22,14.9-7.53,25.6-9.86,1.3-.28,2.57.54,2.85,1.83.28,1.29-.54,2.57-1.83,2.85-10.11,2.2-18.17,5.28-23.95,9.15-7.17,4.82-8.73,7.51-9.03,8.69.1.43,1.38,3.65,18.87,9.99,8.12,2.51,18.83,5.17,31.84,7.9,1.84.39,3.75.78,5.67,1.17,0,0,.02,0,.03,0,27.77,5.94,60.87,7.39,98.37,4.3,15.48-1.28,32.03-3.35,49.17-6.17,19.54-3.46,34.12-7.37,43.32-11.61,6.86-3.16,8.56-5.14,8.98-5.88-.04-.24-.5-2.11-6.53-6.23-5.68-3.88-15.15-7.86-28.14-11.84-1.27-.39-1.98-1.73-1.59-3,.39-1.27,1.73-1.98,3-1.59,13.65,4.18,23.28,8.25,29.44,12.46,5.77,3.94,8.42,6.99,8.62,9.89.06.91-.12,1.76-.55,2.55-1.39,2.56-4.95,5.1-11.21,7.99-9.58,4.41-24.56,8.44-44.51,11.97,0,0-.02,0-.03,0-17.27,2.84-33.95,4.93-49.57,6.22-12.91,1.06-25.31,1.59-37.17,1.59Z"
     id="path42" />
  <path
     class="st0"
     d="M128.09,194.07c-.37,0-.75-.09-1.1-.27-1.18-.61-1.63-2.06-1.02-3.23l5.48-10.56c-11.65-1.69-22.33-4.84-31.77-9.38-5.7-2.74-11.07-6.04-15.96-9.8-16.95-13.05-24.53-28.01-22.52-44.48,1.01-8.24,3.92-16.47,8.65-24.47,1.4-2.36,2.98-4.75,4.71-7.09,3.86-5.24,8.61-10.51,14.11-15.64,9.7-9.06,20.89-15.58,33.27-19.4,8.38-2.58,17.48-3.98,27.05-4.15,7.83-.14,15.32.57,22.26,2.1.75.17,1.5.34,2.24.53l.81.2s.03,0,.04,0c12.83,3.36,24.18,9.76,33.76,19.03,3.31,3.2,6.37,6.51,9.1,9.82,9.9,12.02,16.05,24.91,18.26,38.32,2.89,17.53-4.66,33.32-22.43,46.93-4.08,3.13-8.46,5.9-13.01,8.25-8.65,4.47-18.24,7.57-28.58,9.23l6.82,10.24c.73,1.1.44,2.59-.67,3.33-1.1.73-2.59.44-3.33-.67l-8.12-12.18c-5.88.65-12.08.88-18.45.67-3.8-.13-7.55-.38-11.17-.77l-6.3,12.13c-.43.82-1.26,1.29-2.13,1.29ZM135.43,175.69s0,0,0,0c3.99.47,8.17.79,12.42.93,6.66.22,13.11-.05,19.18-.81,0,0,0,0,0,0,11.22-1.4,21.58-4.52,30.77-9.27,4.3-2.22,8.43-4.85,12.29-7.8,16.49-12.63,23.23-26.48,20.62-42.34-2.07-12.56-7.87-24.69-17.23-36.05-2.61-3.17-5.55-6.34-8.73-9.42-8.97-8.68-19.61-14.68-31.62-17.83l-.8-.2c-.71-.18-1.42-.34-2.13-.5-6.57-1.45-13.68-2.12-21.14-1.99-9.13.16-17.78,1.49-25.73,3.93-11.67,3.6-22.24,9.76-31.41,18.32-5.29,4.93-9.84,9.97-13.53,14.98-1.63,2.21-3.13,4.46-4.44,6.68-4.4,7.42-7.09,15.03-8.02,22.6-1.81,14.87,4.95,27.98,20.68,40.09,4.63,3.57,9.72,6.69,15.11,9.28,9.88,4.75,21.22,7.9,33.68,9.39Z"
     id="path43" />
  <path
     class="st3"
     d="M151.61,194.79c-.67,0-1.34,0-2.01,0-7.44-.04-14.73-.28-21.66-.73-9.05-.58-17.78-1.52-25.96-2.8-.04,0-.08-.01-.12-.02-18.59-3.02-34.88-7.82-48.42-14.26-1.2-.57-2.44-2.82-1.87-4.02.57-1.2,2.33-1.75,3.53-1.18,13.13,6.24,29.39,11.77,47.52,14.72h.04s.02,0,.03.01c8.03,1.26,16.63,2.18,25.54,2.76,6.84.44,14.03.68,21.38.72,9.13.05,18.04-.22,26.47-.79,7.96-.54,15.72-1.36,23.06-2.45,15.83-2.38,30.29-7.5,43.84-14.43,1.18-.6,3.59-.35,4.2.83.6,1.18-.4,3.23-1.57,3.83-14,7.17-29.4,12.05-45.75,14.51-7.47,1.11-15.35,1.95-23.44,2.49-7.93.54-16.26.81-24.81.81Z"
     id="path44" />
</svg>
