<?xml version="1.0" encoding="UTF-8" standalone="no"?>
<svg
   id="Livello_1"
   version="1.1"
   viewBox="0 0 300 300"
   sodipodi:docname="GAME 2 SPACE INVADERS-06.svgz"
   xmlns:inkscape="http://www.inkscape.org/namespaces/inkscape"
   xmlns:sodipodi="http://sodipodi.sourceforge.net/DTD/sodipodi-0.dtd"
   xmlns="http://www.w3.org/2000/svg"
   xmlns:svg="http://www.w3.org/2000/svg">
  <sodipodi:namedview
     id="namedview5"
     pagecolor="#ffffff"
     bordercolor="#000000"
     borderopacity="0.25"
     inkscape:showpageshadow="2"
     inkscape:pageopacity="0.0"
     inkscape:pagecheckerboard="0"
     inkscape:deskcolor="#d1d1d1" />
  <!-- Generator: Adobe Illustrator 30.0.0, SVG Export Plug-In . SVG Version: 2.1.1 Build 123)  -->
  <defs
     id="defs1">
    <style
       id="style1">
      .st0 {
        fill: #f6a6d6;
      }

      .st1 {
        fill: #d52f89;
      }
    </style>
  </defs>
  <path
     class="st1"
     d="M175.46,83.88c-19.45-5.88-39.97,4.52-46.72,23.67-.99,2.81.49,5.9,3.3,6.89.08.03.16.06.24.08,2.75.83,5.69-.64,6.66-3.39,4.82-13.68,19.49-21.11,33.39-16.91,2.86.86,5.88-.75,6.74-3.61.86-2.86-.75-5.88-3.61-6.74Z"
     id="path1" />
  <path
     class="st1"
     d="M227.84,118.68c-.65-26.63-18.15-51.08-45.01-59.2-26.86-8.12-54.97,2.54-70.26,24.36-42.61-3.43-75.23,5.6-81.28,25.62-8.66,28.66,40.29,68.81,109.33,89.68,69.04,20.87,132.04,14.55,140.7-14.11,6.05-20.02-16.1-45.6-53.48-66.34ZM104.26,145.9c-1.39,4.61-7.55,6.81-13.76,4.94-6.21-1.88-10.12-7.13-8.73-11.74,1.39-4.6,7.55-6.82,13.77-4.94,6.21,1.88,10.12,7.13,8.73,11.74ZM161.09,172.03c-1.39,4.6-7.55,6.82-13.76,4.94-6.21-1.88-10.12-7.13-8.73-11.74,1.39-4.6,7.55-6.82,13.76-4.94,6.21,1.88,10.12,7.13,8.72,11.74ZM158.51,139.96c-25.35-7.66-43.65-21.35-39.93-33.66,7.66-25.35,34.43-39.7,59.78-32.03,25.35,7.66,39.69,34.43,32.03,59.78-3.72,12.31-26.53,13.57-51.89,5.91ZM222.88,181.75c-1.39,4.61-7.55,6.81-13.77,4.94-6.21-1.88-10.12-7.13-8.73-11.74,1.39-4.6,7.55-6.82,13.76-4.94,6.21,1.88,10.12,7.13,8.73,11.74Z"
     id="path2" />
  <path
     class="st0"
     d="M103.76,198.74h0c-3.23-.98-6.66.86-7.63,4.09l-11.77,38.95c-.98,3.23.86,6.66,4.09,7.63.59.18,1.18.26,1.78.26,1,0,1.98-.25,2.88-.73,1.44-.77,2.5-2.06,2.97-3.63l11.77-38.95c.47-1.57.31-3.22-.46-4.66-.77-1.44-2.06-2.5-3.63-2.97Z"
     id="path3" />
  <path
     class="st0"
     d="M171.54,219.23c-3.23-.98-6.66.86-7.63,4.09l-11.77,38.95c-.98,3.23.86,6.66,4.09,7.63.59.18,1.18.26,1.77.26,2.63,0,5.07-1.71,5.86-4.35l11.77-38.95c.47-1.57.31-3.22-.46-4.66s-2.06-2.5-3.63-2.97Z"
     id="path4" />
  <path
     class="st0"
     d="M136.68,212.19c-1.56-.47-3.22-.31-4.66.46-1.44.77-2.5,2.06-2.97,3.63l-11.77,38.95c-.98,3.23.86,6.66,4.09,7.63.59.18,1.18.26,1.77.26,2.63,0,5.07-1.71,5.86-4.35l11.77-38.95c.47-1.57.31-3.22-.46-4.66-.77-1.44-2.06-2.5-3.63-2.97Z"
     id="path5" />
</svg>
