<?xml version="1.0" encoding="UTF-8" standalone="no"?>
<svg
   id="Livello_1"
   version="1.1"
   viewBox="0 0 300 300"
   sodipodi:docname="GAME 2 SPACE INVADERS-07.svgz"
   xmlns:inkscape="http://www.inkscape.org/namespaces/inkscape"
   xmlns:sodipodi="http://sodipodi.sourceforge.net/DTD/sodipodi-0.dtd"
   xmlns="http://www.w3.org/2000/svg"
   xmlns:svg="http://www.w3.org/2000/svg">
  <sodipodi:namedview
     id="namedview4"
     pagecolor="#ffffff"
     bordercolor="#000000"
     borderopacity="0.25"
     inkscape:showpageshadow="2"
     inkscape:pageopacity="0.0"
     inkscape:pagecheckerboard="0"
     inkscape:deskcolor="#d1d1d1" />
  <!-- Generator: Adobe Illustrator 30.0.0, SVG Export Plug-In . SVG Version: 2.1.1 Build 123)  -->
  <defs
     id="defs1">
    <style
       id="style1">
      .st0 {
        fill: #f6a6d6;
      }

      .st1 {
        fill: #d52f89;
      }
    </style>
  </defs>
  <path
     class="st0"
     d="M157.91,136.69c4.07,11.17,22.6,14.67,41.39,7.82,18.78-6.85,30.72-21.45,26.65-32.62-4.07-11.17-22.6-14.67-41.39-7.82-18.79,6.85-30.72,21.45-26.65,32.62ZM184.93,119.21c0-3.87,3.14-7,7-7s7,3.14,7,7v10.17c0,3.87-3.14,7-7,7s-7-3.14-7-7v-10.17Z"
     id="path1" />
  <path
     class="st0"
     d="M100.71,144.51c18.78,6.85,37.32,3.35,41.38-7.82,4.07-11.17-7.86-25.77-26.64-32.62-18.79-6.85-37.32-3.35-41.39,7.82-4.07,11.17,7.86,25.77,26.65,32.62ZM101.08,119.21c0-3.87,3.13-7,7-7s7,3.14,7,7v10.17c0,3.87-3.14,7-7,7s-7-3.14-7-7v-10.17Z"
     id="path2" />
  <path
     class="st1"
     d="M100.63,88.58c6.29.42,12.76,1.58,19.06,3.87,11.15,4.06,20.82,10.63,27.24,18.49,1.2,1.47,2.04,3.02,2.99,4.55,5.87-9.5,16.41-17.93,30.41-23.04,6.12-2.23,12.42-3.36,18.55-3.82-5.13-9.54-12.78-17.52-22.19-22.77l5.62-11.33c.12,0,.22.07.35.07,8.11,0,14.69-6.58,14.69-14.69s-6.58-14.69-14.69-14.69-14.69,6.58-14.69,14.69c0,3.44,1.36,6.46,3.34,8.96l-6.09,12.28c-1.28-.36-2.55-.74-3.88-1-9.31-1.82-18.27-1.25-26.5,1.07l-6.13-12.35c1.98-2.5,3.34-5.52,3.34-8.96,0-8.11-6.58-14.69-14.69-14.69s-14.69,6.58-14.69,14.69,6.58,14.69,14.69,14.69c.12,0,.22-.07.35-.07l5.66,11.42c-9.58,5.22-17.55,13.03-22.74,22.63Z"
     id="path3" />
  <path
     class="st1"
     d="M284.3,115.44c-1.98-5.44-7.92-8.29-13.48-6.31l-14.11,4.95c-16.08,5.69-25.86,22.02-23.26,38.97,1.11,7.79-4.21,15.22-12,16.45l-10.89,1.98c-.74-4.33-1.49-8.66-2.1-12.99-.12-1.48-.25-2.85-.37-4.33-1.49.62-2.97,1.36-4.58,1.98-7.55,2.72-15.59,4.21-23.01,4.21-13.61,0-24.37-4.7-30.44-12.74-6.19,8.04-16.95,12.74-30.56,12.74-7.42,0-15.34-1.48-23.01-4.21-1.61-.62-3.09-1.36-4.58-1.98-.25,1.61-.25,3.22-.5,4.83-.5,4.21-1.24,8.29-1.98,12.5l-10.89-1.98c-7.8-1.24-13.12-8.66-11.88-16.45,2.47-16.95-7.3-33.28-23.39-38.97l-14.1-4.95c-5.57-1.98-11.51.87-13.49,6.31-1.85,5.57.99,11.51,6.43,13.49l14.11,4.95c6.55,2.35,10.64,9.03,9.52,15.96-2.85,19.05,10.27,37.24,29.2,40.46l9.9,1.73c-3.71,12.87-8.66,25.24-15.96,36.62-5.45,8.78-1.72,21.62,6.94,27.31,15.09,9.77,34.27,11.01,50.48,3.22,12.87-6.31,26.22-8.25,39.58-2.93l11.01,4.45c15.47,6.06,32.91,4.33,46.89-4.7l2.1-1.36c8.66-5.69,10.76-17.2,5.2-25.98-7.3-11.38-12.25-23.76-15.84-36.62l9.77-1.73c18.93-3.22,32.04-21.4,29.2-40.46-1.11-6.93,2.97-13.61,9.53-15.96l14.1-4.95c5.44-1.98,8.29-7.92,6.43-13.49ZM166.15,190.41h-32.29c-3.71,0-6.68-2.97-6.68-6.68s2.97-6.8,6.68-6.8h32.29c3.71,0,6.68,3.09,6.68,6.8s-2.97,6.68-6.68,6.68Z"
     id="path4" />
</svg>
